<?xml version="1.0" encoding="UTF-8"?>
<svg id="Layer_1" xmlns="http://www.w3.org/2000/svg" viewBox="0 0 637 238">
  <defs>
    <style>
      .cls-1 {
        fill: #fff;
      }
    </style>
  </defs>
  <rect class="cls-1" y="8" width="637" height="222"/>
  <rect width="637" height="238"/>
  <g>
    <path class="cls-1" d="M264.9,18.75c1.25.75,2.04,1.74,2.38,2.98.34,1.24.15,2.48-.6,3.73-1.11,1.79-2.48,3.43-4.1,4.92-3.29,3.06-6.92,5.82-10.88,8.29-19.93,13.03-41.41,22.93-64.44,29.71-1.06.31-2.1.64-3.15,1-1.56.52-3.15.99-4.77,1.44-.45.17-.85.12-1.23-.15-.38-.28-.61-.67-.71-1.19,0-.23.09-.51.27-.83.19-.32.41-.53.65-.63,1.93-.82,3.94-1.57,6.04-2.25,23.08-7.65,44.71-18.3,64.9-31.94,2.47-1.79,4.86-3.65,7.17-5.58.3-.3.65-.56,1.02-.77,1.18-.97,2.03-2.21,2.54-3.71.29-.88.03-1.61-.77-2.23-.92-.57-1.93-.91-3.04-1.02-.21,0-.43-.03-.67-.08-4.41-.75-8.81-1.13-13.23-1.13s-8.83.19-13.23.56c-9.99.97-19.93,2.32-29.83,4.04-9.91,1.71-19.78,3.61-29.63,5.71-29.18,6.16-57.89,13.97-86.13,23.46-10.06,3.35-20.02,6.92-29.9,10.71-9.86,3.79-19.6,7.96-29.21,12.5-2.61,1.28-5.22,2.55-7.83,3.81-1.39.74-2.83,1.48-4.31,2.23-.24.07-.43.19-.56.35-.99.52-2,.92-3.04,1.21-.52.21-1.05.3-1.6.27-.56-.04-.99-.28-1.29-.71-.31-.61-.31-1.14,0-1.58.3-.44.71-.82,1.21-1.13.07-.07.19-.13.38-.19,2.43-1.43,4.95-2.82,7.56-4.17,8.36-4.23,16.88-8.14,25.54-11.71,8.67-3.57,17.43-6.93,26.29-10.08,35.69-12.72,72.09-22.81,109.19-30.27,8.94-1.79,17.88-3.43,26.81-4.92,8.94-1.48,17.95-2.6,27.02-3.35,2.59-.14,5.23-.28,7.92-.42,1.18-.09,2.42-.18,3.71-.25,5.58,0,11.17.41,16.75,1.23,2.38.31,4.65,1.02,6.81,2.13ZM126.81,122.75c.51.1,1,.28,1.46.54.46.25.79.53,1,.83.22.31.25.59.08.85-.38.49-.8.77-1.27.83-.47.06-.93.08-1.35.08h-.27c-7.95,0-15.95.38-24.02,1.13-4.22.38-8.5.68-12.83.92-1.43.07-2.4.81-2.9,2.23-.45,1.11-.94,2.23-1.48,3.35-.27.64-.52,1.3-.75,1.98-1.06,2.41-2.06,4.76-3,7.06-8.2,19.94-16.73,39.75-25.6,59.42-2.54,5.44-5.23,10.8-8.06,16.08,0,.07-.04.14-.1.21-.89,1.72-2.01,3.36-3.35,4.94-1.18,1.42-2.74,1.9-4.67,1.46-.54-.17-1-.44-1.38-.81s-.56-.85-.56-1.42c.09-1.29.33-2.56.71-3.81.28-.88.57-1.81.88-2.79,1.48-4.83,3.05-9.68,4.71-14.52,7.46-21.36,16.13-42.21,26-62.56.92-1.93,2-3.82,3.25-5.69.3-.44.73-.71,1.29-.79.57-.08,1.1-.04,1.6.13.92.28,1.26.98,1.02,2.1-.24,1.11-.7,2.4-1.4,3.85-.7,1.45-1.39,2.73-2.06,3.85-.54.92-.91,1.59-1.1,2.02-10.24,21.97-15.95,34.78-17.13,38.44-.45,1.26-.67,2.11-.67,2.54s.15.63.46.56c.3-.07.65-.27,1.02-.6s.72-.69,1.04-1.06c.32-.38.53-.64.65-.77.43-1.11.9-2.27,1.42-3.46,1.65-3.82,3.29-7.63,4.92-11.42.51-1.11,1.01-2.23,1.48-3.35,3.48-8.26,6.94-16.52,10.35-24.77.17-.3.39-.76.67-1.38.61-1.19,1.25-2.58,1.92-4.17.68-1.59,1.11-3.03,1.29-4.29.19-1.28-.14-1.94-.98-2h-11.48c-3.28,0-6.56-.05-9.85-.17-.88-.07-1.69-.28-2.44-.65-.06-.07-.11-.19-.17-.38-.06-.19-.12-.41-.19-.65v-.21c0-.07.04-.15.13-.23.09-.08.17-.16.23-.23.44-.3.88-.49,1.31-.56.44-.07.91-.1,1.4-.1h.4c1.86-.05,3.72-.11,5.58-.19,4.84-.3,9.69-.49,14.52-.56,1.67,0,2.96-.35,3.9-1.06.93-.71,1.65-1.81,2.15-3.31,2.4-6.19,4.82-12.36,7.27-18.52,2.61-6.57,5.18-13.14,7.71-19.71,1.93-5.04,3.76-10.1,5.5-15.19.94-2.68,1.91-5.39,2.9-8.13,0-.09.03-.18.1-.25.36-1.18.84-2.26,1.46-3.25.38-.51.82-.78,1.35-.81.53-.04,1.07.01,1.65.15.44.24.8.53,1.06.88.28.33.38.72.31,1.17-.24,1.7-.58,3.37-1.02,5.02-2.47,8.13-5.27,16.1-8.38,23.92-.17.21-.29.43-.35.67-2.81,7.38-5.7,14.7-8.69,21.98-1.35,3.35-2.7,6.7-4.06,10.06v.1c-.38.97-.75,1.99-1.13,3.04-.36.95-.38,1.64-.04,2.06.33.42,1.06.63,2.19.63,1.48,0,2.97-.08,4.46-.25h2.04c.14,0,.23-.03.29-.1,8.57-.3,17.1-.61,25.6-.92.68-.07,1.35-.07,2.02,0Z"/>
    <path class="cls-1" d="M168.12,135.63c.8.46.86,1.57.19,3.33-.99,1.28-2.04,2.48-3.17,3.6-1.11,1.11-2.33,2.11-3.65,3-.1,0-.15.03-.15.08-.88.61-1.81,1.14-2.79,1.58-8.1,2.92-12.23,1.21-12.4-5.13-3.28,2.85-5.48,4.59-6.6,5.23-2.67,1.58-5.56,2.29-8.69,2.13-2.29-.13-3.85-.82-4.69-2.08-.83-1.28-.76-3,.23-5.17,1.49-3.42,3.6-6.46,6.35-9.15,3.21-2.98,6.78-5.38,10.71-7.17,2.09-1.04,4.3-1.44,6.6-1.21,2.3.14,3.69,1.44,4.17,3.9.19.75,0,1.42-.56,2-.75.67-1.61.81-2.58.44-.07,0-.17-.01-.29-.04-.11-.03-.2-.07-.27-.15-.99-1.36-1.98-1.93-2.98-1.71-1,.22-2.06.68-3.17,1.35-5.21,3.04-9.08,7.29-11.63,12.73-.14.25-.23.52-.27.81-.03.28.06.5.27.67.61.21,1.28.17,2.02-.13.75-.29,1.49-.71,2.23-1.27.75-.55,1.38-1.02,1.9-1.4.07-.09.1-.15.1-.15,2.46-2.07,4.88-4.19,7.25-6.35,1.05-1.11,2.36-1.73,3.92-1.88,2.23,0,3.17,1,2.79,3-.21.74-.43,1.48-.67,2.23-.88,3.22-.91,5.11-.1,5.67.82.56,2.06.56,3.73,0,1.68-.55,3.35-1.61,5.02-3.19,1.68-1.58,3.09-3.03,4.25-4.33,1.15-1.3,2.13-1.73,2.92-1.27Z"/>
    <path class="cls-1" d="M185.14,140.1c-1.81,2.14-3.95,4.11-6.42,5.92-2.47,1.79-5.27,3-8.4,3.63-3.11.63-5.53.4-7.25-.69-1.73-1.08-2.07-3.48-1.02-7.21,1.36-3.86,3.22-7.53,5.58-11.02.54-.75,1.32-1.28,2.33-1.58.75-.17,1.4-.03,1.96.4.55.42.77.95.65,1.58-.52,1.22-1.08,2.45-1.69,3.67-.61,1.22-1.02,2.02-1.21,2.38-1.2,2.17-2.03,4.44-2.5,6.81,0,1.36,1.81,1.45,5.44.27,3.63-1.19,7.15-3.38,10.56-6.54s5.05-4.09,4.9-2.79c-.16,1.31-1.14,3.04-2.94,5.19ZM176.29,123.1c-.18.14-.54.31-1.06.5-.52.18-1.07.31-1.67.4-.58.08-1.05,0-1.4-.27-.33-.28-.35-.82-.04-1.65.54-1.42,1.1-2.65,1.69-3.71.59-1.07,1.36-2.25,2.31-3.54.61-.58,1.27-.9,1.98-.94.72-.05,1.32.14,1.79.56.47.42.6,1,.4,1.75-.74,2.67-2.07,4.97-4,6.9Z"/>
    <path class="cls-1" d="M216.49,136.98c-4.53,5.35-8.97,9.29-13.33,11.83-4.35,2.53-9,3.36-13.96,2.5-4.96-.86-6.99-4.19-6.1-9.98.6-2.9,1.43-5.74,2.48-8.52,2.61-6.47,5.25-12.9,7.92-19.29.89-2.3,1.82-4.63,2.79-6.96.23-.51.46-1.03.67-1.54.38-.83.75-1.69,1.13-2.58.54-1.48-.06-2.26-1.79-2.33h-4.35c-.52.07-1.04.14-1.58.21-.88.07-1.75.1-2.63.1s-1.66-.22-2.4-.67c-.21-.07-.38-.19-.5-.38-.11-.19-.17-.41-.17-.65.07-.14.18-.3.33-.48.15-.18.34-.3.58-.38.75-.3,1.53-.53,2.33-.67,2.09-.09,4.18-.18,6.25-.25h2.13c1.36,0,2.36-.05,3.02-.15.67-.11,1.2-.46,1.6-1.06.4-.61.88-1.55,1.42-2.81.3-.67.68-1.41,1.13-2.23,1.11-2.38,2.23-4.79,3.35-7.25.5-1.13,1.02-2.21,1.56-3.25.44-1.05,1.14-1.86,2.08-2.44.92-.44,1.71-.42,2.4.08.21.14.36.36.48.67.13.31.19.58.19.81,0,1.32-.34,2.63-1.02,3.92-.14.27-.29.58-.46.96-.45,1.22-.92,2.46-1.42,3.71-.99,2.31-1.92,4.66-2.79,7.06-.24.45-.25.83-.04,1.17.22.33.55.5,1,.5,2.4.07,4.76.1,7.06.1h3.54c3.73.07,5.23.6,4.48,1.58-.52.57-1.07.9-1.67.98-.58.08-1.18.08-1.79-.02h-1.1c-3.79.24-7.56.39-11.29.46-1.72,0-2.87.78-3.44,2.33-.61,1.49-1.21,2.98-1.79,4.48-.85,1.96-1.64,3.87-2.38,5.73-.75,1.77-1.49,3.54-2.23,5.33-1.93,4.54-3.8,9.1-5.6,13.67-1.11,2.97-1.99,6.02-2.63,9.13-1.43,5.66.75,7.82,6.54,6.5,5.69-1.34,11.65-5.44,17.88-12.27,2.71-1.73,3.42-.96,2.13,2.33Z"/>
    <path class="cls-1" d="M254.83,137.83c-.61.54-1.25,1.04-1.92,1.48-2.17,1.35-4.13,2.41-5.88,3.19-1.74.78-3.79,1.58-6.17,2.4-3.53,1.04-5.79.81-6.79-.71-.99-1.53-1.15-3.65-.48-6.35.96-3.86,1.51-6.69,1.67-8.48.15-1.79-.45-2.41-1.79-1.85-1.33.56-3.76,2.41-7.27,5.56-4.92,4.24-9.12,9.08-12.6,14.52-.44.75-.98,1.36-1.63,1.83-.64.47-1.44.71-2.4.71-.9,0-1.55-.23-1.96-.71-.42-.47-.44-1.11-.06-1.94,2-4.4,4.05-8.77,6.15-13.1,3.58-7.51,7.11-14.99,10.6-22.44,2.61-5.58,5.19-11.17,7.73-16.75,1.55-3.29,3.07-6.57,4.56-9.85.14-.28.29-.57.46-.88.14-.38.3-.74.48-1.1.19-.38.41-.78.65-1.23.19-.38.57-.68,1.13-.92.57-.23,1.13-.39,1.69-.46.55-.07.98-.03,1.29.1.44.31.69.64.73.98.05.33,0,.69-.17,1.06-.07.07-.1.19-.1.35-.68,2-1.39,3.93-2.13,5.79-4.31,10.36-8.99,20.56-14.06,30.6-.38.68-.82,1.49-1.33,2.44-.74,1.36-1.43,2.7-2.08,4-.64,1.31-.85,2.18-.63,2.63.22.43,1.23.09,3.02-1.02.54-.38,1.03-.75,1.48-1.13,1.42-.94,2.82-1.84,4.21-2.69,1.22-.82,2.57-1.26,4.06-1.33,3.55-.23,5.55,1.38,5.98,4.83.18,1.39.13,2.77-.15,4.13-.27,1.35-.58,2.68-.96,4-.07.38-.14.75-.21,1.13-.61,2.29-.45,3.61.48,3.96.93.33,2.23.15,3.92-.56,1.68-.71,3.38-1.57,5.1-2.58,1.18-.61,2.21-1.14,3.1-1.58.9-.44,1.57-.63,2.02-.56.82.14,1.19.47,1.13,1-.07.53-.36,1.04-.88,1.54Z"/>
    <path class="cls-1" d="M312.08,141.08c-7.82,15.88-11.95,24.26-12.4,25.15-.52.97-1.04,1.98-1.58,3.04-.13.26-.22.55-.29.85-1.06,2.04-2.07,4.09-3.04,6.15-6.17,12.46-12.04,24.97-17.63,37.54,0,.17-.05.32-.17.46-.05.3-.19.6-.4.9-.75,1.05-1.68,1.5-2.79,1.33-.3.07-.61.07-.92,0-.61-.14-1.07-.4-1.4-.77-.32-.38-.38-.9-.19-1.56.82-2.47,1.79-4.93,2.9-7.38,3.91-8.25,7.79-16.56,11.65-24.94,2.29-4.97,4.61-9.97,6.96-14.98,1.01-1.99,4.15-8.32,9.42-19,5.26-10.69,8.33-16.97,9.21-18.83,6.94-14.14,14.24-28.15,21.9-42.04,4.9-9.07,9.74-18.19,14.52-27.38.54-1.11,1.21-2.1,2.02-2.98.68-.68,1.49-1.09,2.44-1.23.3-.17.61-.2.92-.1.75-.09,1.32.1,1.73.6.4.49.48,1.06.25,1.73-.2.52-.41,1.04-.65,1.58-1.33,3.18-2.83,6.35-4.48,9.5-5.52,10.63-11.1,21.24-16.75,31.83-2.92,5.42-5.78,10.85-8.58,16.29-1.43,2.61-2.82,5.26-4.17,7.94-.52.97-1.02,1.97-1.52,2.98-.11.18-.2.33-.25.46-.21.38-.38.75-.5,1.13-.11.38-.1.72.04,1.02.23.31.53.49.9.56.38-.07.75-.14,1.13-.21.14-.09.29-.18.46-.25,4.09-1.19,8.19-2.38,12.29-3.56,11.47-3.34,22.89-6.88,34.25-10.6,11.36-3.73,22.63-7.86,33.79-12.4,6.97-2.84,13.86-5.85,20.69-9.02,6.83-3.17,13.53-6.68,20.08-10.54,5.48-3.21,10.65-6.98,15.5-11.31,2.4-2.14,4.5-4.56,6.29-7.27,3.63-5.42,3.84-10.48.67-15.19-1.93-2.8-4.39-5.1-7.38-6.9-4.46-2.92-9.3-5.19-14.52-6.81-12.77-3.89-26.04-6.36-39.81-7.42-8.08-.57-16.27-.89-24.56-.96-4.47,0-8.98.1-13.52.31-6.77.31-13.56.91-20.4,1.81-6.82.89-13.61,2.42-20.38,4.58-4.31,1.39-8.51,3.17-12.6,5.33-3.14,1.49-5.93,3.47-8.38,5.94-.68.75-1.47,1.31-2.38,1.67-.45.21-.85.28-1.23.21-.75.07-1.38-.15-1.88-.65-.68-.75-.68-1.56,0-2.44,1.04-1.43,2.25-2.67,3.63-3.71,1.38-1.05,2.8-1.98,4.29-2.79,6.84-3.97,13.96-6.89,21.33-8.75,9-2.29,18.02-3.69,27.06-4.21,8.76-.68,17.55-1.05,26.35-1.13h5.23c8.43.14,16.78.56,25.04,1.27,8.26.71,16.42,1.97,24.48,3.77,4.17.95,8.26,2.07,12.29,3.38,4.03,1.31,7.9,2.94,11.63,4.9,4.09,2,7.67,4.6,10.71,7.81,6.71,7.35,6.36,15.49-1.02,24.44-3.42,3.96-7.26,7.43-11.52,10.4-5.35,3.86-10.85,7.34-16.5,10.44-5.66,3.1-11.43,5.95-17.31,8.56-12.16,5.58-24.45,10.6-36.9,15.04-12.45,4.43-24.95,8.51-37.5,12.23-9.86,2.99-19.7,5.85-29.5,8.58-1.57.38-2.96.99-4.17,1.85-1.2.86-2.16,2.1-2.9,3.73ZM483.28,183.25c3.23,2.8-16.07-2.04-57.92-14.54-28.68-8.73-57.61-16.98-86.79-24.73-8.13-2.07-16.29-4.07-24.48-6-3.28-.84-6.56-1.64-9.85-2.38-1.11-.28-2.22-.5-3.33-.67-.21,0-.43-.03-.67-.1-.75,0-.65-.98.31-2.96.97-1.98,2.17-2.6,3.6-1.85,1.86.97,6.25,2.43,13.17,4.35,6.93,1.93,15.88,4.39,26.83,7.38,20.75,5.45,45.55,12.39,74.4,20.81,39.92,11,61.49,17.9,64.73,20.69Z"/>
    <path class="cls-1" d="M439.85,135.63c.8.46.86,1.57.19,3.33-.99,1.28-2.04,2.48-3.17,3.6-1.11,1.11-2.33,2.11-3.65,3-.1,0-.15.03-.15.08-.88.61-1.81,1.14-2.79,1.58-8.1,2.92-12.23,1.21-12.4-5.13-3.28,2.85-5.48,4.59-6.6,5.23-2.67,1.58-5.56,2.29-8.69,2.13-2.29-.13-3.85-.82-4.69-2.08-.83-1.28-.76-3,.23-5.17,1.49-3.42,3.6-6.46,6.35-9.15,3.21-2.98,6.78-5.38,10.71-7.17,2.09-1.04,4.3-1.44,6.6-1.21,2.3.14,3.69,1.44,4.17,3.9.19.75,0,1.42-.56,2-.75.67-1.61.81-2.58.44-.07,0-.17-.01-.29-.04-.11-.03-.2-.07-.27-.15-.99-1.36-1.98-1.93-2.98-1.71-1,.22-2.06.68-3.17,1.35-5.21,3.04-9.08,7.29-11.63,12.73-.14.25-.23.52-.27.81-.03.28.06.5.27.67.61.21,1.28.17,2.02-.13.75-.29,1.49-.71,2.23-1.27.75-.55,1.38-1.02,1.9-1.4.07-.09.1-.15.1-.15,2.46-2.07,4.88-4.19,7.25-6.35,1.05-1.11,2.36-1.73,3.92-1.88,2.23,0,3.17,1,2.79,3-.21.74-.43,1.48-.67,2.23-.88,3.22-.91,5.11-.1,5.67.82.56,2.06.56,3.73,0,1.68-.55,3.35-1.61,5.02-3.19,1.68-1.58,3.09-3.03,4.25-4.33,1.15-1.3,2.13-1.73,2.92-1.27Z"/>
    <path class="cls-1" d="M481.52,134.27c.28-.05.58-.05.92.02.34.06.6.2.77.44.19.38.18.75-.04,1.13-.21.38-.54.66-.98.85-3.04,1.5-6.1,3.04-9.19,4.63-3.63,1.86-7.27,3.72-10.92,5.58-.54.21-1.07.47-1.58.77-.81.45-1.62.85-2.44,1.21-1.86.92-3.1,2.34-3.71,4.27-1.63,4.61-3.33,9.18-5.13,13.71-2.31,6.07-5.18,11.84-8.63,17.33-1.93,3.14-4.27,5.93-7.02,8.38-3.28,3.08-7.03,5.03-11.27,5.83-7,1.42-13.75.96-20.25-1.38-2.68-.95-4.98-2.47-6.92-4.56-2.61-2.81-2.73-5.82-.35-9.04,1.06-1.35,2.22-2.62,3.5-3.81,2.88-2.6,5.99-4.93,9.35-7,12.02-7.7,24.35-14.77,37.02-21.23h.1c1.32-.68,2.61-1.39,3.9-2.13.21-.18.5-.55.88-1.1.38-.55.65-1.11.83-1.67.18-.57.13-.98-.17-1.23-.28-.25-.98-.13-2.1.38-.43.18-.83.37-1.21.56-.99.47-1.97.9-2.94,1.27-5.79,1.39-8.69-.84-8.69-6.71.13-3.51,1.18-6.68,3.17-9.5,1.98-2.83,4.51-5.05,7.58-6.67,3.08-1.61,6.42-2.23,10.02-1.85.38,0,.74.05,1.1.15.98.14,1.98.21,2.98.21s2.02-.21,3.06-.65c1.13-.44,1.96-.32,2.52.38.55.7.65,1.6.27,2.71-.97,2.1-1.93,4.23-2.88,6.4-.68,1.32-1.33,2.7-1.94,4.13-.68,1.49-1.34,3.01-1.98,4.56-.92,2.03-1.06,3.1-.42,3.21.65.1,1.76-.26,3.31-1.06.19-.07.41-.14.65-.21,2.84-1.36,5.71-2.7,8.58-4.02,2.04-.92,4.05-1.84,6.04-2.79,1.36-.61,2.75-1.1,4.17-1.48ZM445.42,161.54c1.05-2.97,1.51-4.92,1.35-5.85-.16-.93-.81-1.17-1.96-.73-1.16.43-2.66,1.24-4.52,2.44-1.18.74-2.49,1.48-3.92,2.23-8.55,4.64-16.9,9.59-25.02,14.88-3.59,2.09-6.8,4.64-9.6,7.63-2.98,3.18-2.88,6.01.31,8.48,1.86,1.48,3.94,2.52,6.23,3.1,2.28.59,4.79.9,7.52.9,3.22.23,6.21-.35,8.96-1.77,2.74-1.42,5.27-3.55,7.6-6.4,1.39-1.86,2.72-3.79,4-5.79,3.73-6.1,6.75-12.47,9.04-19.1ZM442.06,143.58c.89.36,2.17.04,3.83-.98,1.68-1.01,3.4-2.41,5.17-4.19,1.76-1.78,3.16-3.59,4.19-5.46,1.03-1.86,1.29-3.44.79-4.73-.14-.36-.36-.69-.67-1-.54-.65-1.15-.96-1.81-.92-.66.03-1.35.15-2.1.35-2.47.99-4.66,2.68-6.56,5.06-1.89,2.38-3.15,4.74-3.77,7.08-.63,2.33-.31,3.93.94,4.77Z"/>
    <path class="cls-1" d="M504.64,137.27c1.11-1.11,2.03-1.73,2.77-1.88.75-.14,1.23-.02,1.46.35.22.38.08.89-.42,1.52-2.99,3.6-6.33,6.7-10.02,9.31-3.68,2.6-7.48,4.1-11.4,4.52-3.91.41-6.27-1.73-7.08-6.42-.61-4.64,2.19-14.08,8.42-28.33,6.23-14.25,11.17-25.93,14.79-35.04.3-.8.76-1.51,1.38-2.13.8-.82,1.77-1.01,2.9-.56.38.17.74.44,1.1.81.38.38.5,1.04.38,1.98-16.02,37.99-23.77,58.64-23.27,61.96.51,3.32,2.65,4.14,6.42,2.46,3.78-1.68,6.69-3.39,8.73-5.13,2.05-1.75,3.34-2.9,3.85-3.44Z"/>
    <path class="cls-1" d="M542.23,135.63c.8.46.86,1.57.19,3.33-.99,1.28-2.04,2.48-3.17,3.6-1.11,1.11-2.33,2.11-3.65,3-.1,0-.15.03-.15.08-.88.61-1.81,1.14-2.79,1.58-8.1,2.92-12.23,1.21-12.4-5.13-3.28,2.85-5.48,4.59-6.6,5.23-2.67,1.58-5.56,2.29-8.69,2.13-2.29-.13-3.85-.82-4.69-2.08-.83-1.28-.76-3,.23-5.17,1.49-3.42,3.6-6.46,6.35-9.15,3.21-2.98,6.78-5.38,10.71-7.17,2.09-1.04,4.3-1.44,6.6-1.21,2.3.14,3.69,1.44,4.17,3.9.19.75,0,1.42-.56,2-.75.67-1.61.81-2.58.44-.07,0-.17-.01-.29-.04-.11-.03-.2-.07-.27-.15-.99-1.36-1.98-1.93-2.98-1.71-1,.22-2.06.68-3.17,1.35-5.21,3.04-9.08,7.29-11.63,12.73-.14.25-.23.52-.27.81-.03.28.06.5.27.67.61.21,1.28.17,2.02-.13.75-.29,1.49-.71,2.23-1.27.75-.55,1.38-1.02,1.9-1.4.07-.09.1-.15.1-.15,2.46-2.07,4.88-4.19,7.25-6.35,1.05-1.11,2.36-1.73,3.92-1.88,2.23,0,3.17,1,2.79,3-.21.74-.43,1.48-.67,2.23-.88,3.22-.91,5.11-.1,5.67.82.56,2.06.56,3.73,0,1.68-.55,3.35-1.61,5.02-3.19,1.68-1.58,3.09-3.03,4.25-4.33,1.15-1.3,2.13-1.73,2.92-1.27Z"/>
    <path class="cls-1" d="M579.29,136.17c.54.67-.14,1.91-2.04,3.71-1.89,1.79-3.91,3.3-6.04,4.52-2.14,1.21-4.61,2.43-7.42,3.65-1.86.82-3.84,1.1-5.94.83-2.1-.28-3.15-1.55-3.15-3.81s.52-4.53,1.56-6.77c1.05-2.3,1.28-3.48.69-3.54-.58-.07-1.81.49-3.67,1.67-4.85,3.18-9.35,6.82-13.52,10.92-1.11,1.35-2.53,2.09-4.27,2.23-.88,0-1.55-.28-2.04-.83-.5-.55-.56-1.16-.19-1.81,2.99-5.51,6-10.96,9.04-16.33.68-1.13,1.69-1.82,3.04-2.08.58-.11,1.11.06,1.6.52.48.46.73.98.73,1.56-.06.54-.27,1.18-.65,1.92-.17.45-.33.87-.48,1.27-.16.41-.21.74-.17,1.02.05.27.27.35.65.25.5-.26,1.01-.55,1.52-.85,1.28-.75,2.51-1.46,3.71-2.15,1.04-.61,2.14-1.15,3.29-1.63,1.15-.47,2.35-.79,3.6-.96,2.04-.14,3.48.32,4.31,1.38.84,1.04.95,2.49.31,4.35-.68,1.7-1.39,3.38-2.13,5.04-.92,1.56-1.07,2.74-.46,3.56.61.81,3.44-.13,8.48-2.81l3.81-2.23c3.58-2.3,5.51-3.17,5.79-2.58Z"/>
    <path class="cls-1" d="M621.37,134.77c.72.18,1.09.45,1.13.79l.06.5c-.82,1.42-1.75,2.72-2.79,3.9-2.42,2.68-5.22,4.82-8.4,6.42-1.56.88-3.31,1.35-5.27,1.42-4.54.07-6.63-2.13-6.25-6.6.17-.94.39-1.88.67-2.79.17-.44.28-.88.35-1.31.43-1.63.55-2.53.38-2.71-.18-.19-.72.27-1.6,1.38-.24.21-.45.43-.65.67-1.36,1.63-2.75,3.22-4.17,4.77-2.61,2.97-5.59,5.48-8.94,7.52-2,1.18-4.12,1.81-6.35,1.88-3.65.17-5.7-1.51-6.15-5.02-.17-1.43-.09-2.84.21-4.23,1.49-5.75,4.46-10.13,8.94-13.15,4.47-3.01,9.58-4.08,15.33-3.21,1.63.49,2.81.05,3.56-1.31.3-.51.6-1.04.9-1.58,1.57-2.67,3.09-5.34,4.58-8.02,2.8-5.14,5.63-10.32,8.48-15.54,2.3-4.08,4.6-8.21,6.9-12.38.68-1.29,1.43-2.53,2.25-3.71.36-.58.82-.93,1.38-1.04.57-.13,1.16-.19,1.77-.19h.46c.67,0,1.2.18,1.6.52.42.33.51.79.27,1.35-.45,1.43-.97,2.79-1.58,4.06-3.11,6.24-6.05,12.55-8.81,18.94-2.75,6.38-5.47,12.79-8.15,19.25-.88,2.24-1.77,4.47-2.69,6.71-1.11,2.61-2.04,5.29-2.79,8.02-.21.61-.31,1.22-.31,1.81s.29,1.11.88,1.54c.38.24.76.28,1.17.13.4-.15.84-.32,1.31-.52.07-.11.17-.19.31-.25,3.21-1.88,6.15-4.11,8.83-6.71.44-.44.91-.82,1.4-1.13.48-.3,1.08-.36,1.79-.17ZM596.29,131.48c.38-.59.48-1.17.33-1.73-.16-.57-.54-.98-1.15-1.25-1.25-.68-2.58-.77-4-.27-3.49,1.06-6.41,3.06-8.77,6-2.35,2.95-3.63,6.2-3.83,9.75.07.17.1.29.1.35v.92c.3,1.63,1.31,1.94,3.02.94s3.61-2.61,5.73-4.85c2.13-2.23,4.02-4.36,5.69-6.38,1.68-2.01,2.64-3.17,2.88-3.48Z"/>
  </g>
</svg>